<?xml version="1.0" standalone="no"?>
<!DOCTYPE svg PUBLIC "-//W3C//DTD SVG 20010904//EN"
 "http://www.w3.org/TR/2001/REC-SVG-20010904/DTD/svg10.dtd">
<svg version="1.0" xmlns="http://www.w3.org/2000/svg"
 width="700.000000pt" height="700.000000pt" viewBox="0 0 700.000000 700.000000"
 preserveAspectRatio="xMidYMid meet">
<metadata>
Created by potrace 1.11, written by Peter Selinger 2001-2013
</metadata>
<g transform="translate(0.000000,700.000000) scale(0.100000,-0.100000)"
fill="#000000" stroke="none">
<path d="M3305 6370 c-154 -34 -275 -89 -595 -267 -209 -116 -299 -153 -525
-217 -424 -120 -609 -209 -752 -359 -135 -142 -209 -304 -328 -710 -77 -266
-113 -351 -258 -606 -218 -387 -280 -607 -241 -856 28 -172 80 -300 240 -585
144 -257 181 -345 259 -610 99 -339 153 -473 239 -600 35 -52 33 -50 106 -125
130 -134 319 -224 700 -334 276 -79 357 -114 625 -263 407 -226 560 -272 830
-245 163 16 302 72 630 254 220 122 313 163 485 216 63 20 180 56 260 80 305
94 445 168 579 306 132 136 204 289 321 681 91 308 121 378 259 620 135 237
217 431 245 579 13 70 15 262 2 319 -35 158 -95 301 -224 534 -177 318 -201
379 -309 758 -57 198 -122 351 -197 464 -149 223 -338 336 -765 457 -299 85
-400 127 -661 271 -220 122 -219 122 -313 162 -78 33 -170 64 -247 82 -14 3
-83 8 -155 9 -99 3 -149 -1 -210 -15z m446 -236 c85 -30 263 -118 394 -194
194 -112 454 -219 655 -270 97 -24 299 -94 377 -130 208 -97 295 -193 408
-455 8 -16 45 -137 85 -268 39 -131 83 -270 97 -310 28 -76 123 -268 198 -402
95 -167 186 -368 202 -445 48 -226 7 -405 -164 -714 -143 -260 -213 -406 -258
-538 -25 -76 -48 -146 -50 -155 -16 -83 -102 -338 -152 -453 -47 -106 -180
-268 -234 -285 -10 -4 -19 -10 -19 -14 0 -4 -44 -29 -97 -54 -94 -43 -214 -85
-408 -142 -289 -85 -388 -125 -619 -254 -210 -117 -333 -177 -438 -213 -79
-27 -110 -32 -208 -35 -98 -2 -130 1 -209 22 -101 27 -276 108 -460 212 -184
105 -323 167 -501 223 -505 158 -596 194 -697 276 -152 123 -222 254 -329 624
-99 337 -133 420 -290 701 -173 311 -222 441 -229 605 -6 169 45 322 205 609
161 289 200 377 270 605 130 424 166 518 239 623 77 112 206 206 366 268 44
18 188 64 320 104 132 40 281 89 330 109 88 37 265 127 368 188 212 125 413
201 547 207 30 1 56 4 58 5 8 8 179 -27 243 -50z"/>
<path d="M3647 4498 c-215 -28 -402 -118 -549 -265 -69 -68 -158 -185 -373
-488 -33 -47 -62 -84 -65 -84 -3 0 -26 27 -52 59 -95 118 -191 161 -363 163
l-110 2 0 -98 c0 -54 2 -101 5 -105 3 -4 48 -8 100 -9 137 -2 147 -8 263 -141
15 -18 27 -37 27 -42 0 -6 -25 -42 -56 -80 -75 -93 -111 -110 -237 -110 -57 0
-97 -4 -98 -10 0 -5 -1 -39 -1 -75 0 -36 1 -78 1 -95 l1 -30 90 0 c190 0 294
49 403 190 l28 35 20 -25 c12 -14 87 -117 168 -230 153 -216 182 -252 270
-338 108 -104 284 -198 427 -227 195 -39 357 -31 524 25 190 64 342 177 473
352 95 126 306 423 303 426 -2 1 -95 3 -207 3 -115 0 -223 5 -248 11 -59 15
-113 70 -130 131 l-14 47 -99 0 -100 0 5 -47 c11 -91 47 -163 112 -228 65 -65
183 -119 258 -117 15 0 27 -2 27 -5 0 -15 -101 -144 -156 -199 -76 -77 -149
-126 -245 -165 -283 -115 -612 -48 -821 168 -45 46 -220 281 -415 559 l-22 31
100 139 c54 76 127 179 162 228 184 263 302 361 504 418 111 32 296 32 405 1
104 -30 174 -64 246 -118 83 -62 135 -122 264 -305 61 -85 114 -159 119 -165
13 -13 259 -13 251 0 -11 19 -256 360 -305 425 -62 82 -165 181 -241 233 -181
123 -434 184 -649 155z"/>
</g>
</svg>
