<svg id="Layer_3" data-name="Layer 3" xmlns="http://www.w3.org/2000/svg" viewBox="0 0 20 20">
  <title>Icons</title>
  <path d="M15.4,12.16l-.11-1.32-.07-1-.35-4.3-.09-1.15,0-.16-.08-1,0-.27a2.07,2.07,0,0,1,.13-.89L15.62,0h-10L6.4,2a2,2,0,0,1,.15.91l0,.35-.08,1v.13L6.34,5.55,6,9.88l-.08,1-.1,1.28-.1,1.15-.13,1.65a5.16,5.16,0,0,0,1.26,3.29,6.75,6.75,0,0,0,.54.53,4.84,4.84,0,0,0,1,.68A5,5,0,0,0,10.6,20a5,5,0,0,0,2.13-.49,5.34,5.34,0,0,0,1.09-.7,6.75,6.75,0,0,0,.54-.53,5.19,5.19,0,0,0,.78-1.17,5.07,5.07,0,0,0,.48-2.13l-.13-1.62ZM11.13.75h3.39L14.1,1.84a2.68,2.68,0,0,0-.19,1.22l.05.53L11.12.76h0Zm0,7.14,3-2.95.45,5.62-.36.36Zm2.51,3.56-3,3-3-3,3-3Zm-3-10.16,3,3-3,3-3-3ZM10.05.75h0L7.25,3.58l0-.59A2.67,2.67,0,0,0,7.1,1.74l-.4-1ZM7.14,5l2.92,2.93-3,3-.34-.35ZM7.37,17.7a4.27,4.27,0,0,1-1-2.73l.2-2.49L7,12l3,3Zm3.23,1.51a4.22,4.22,0,0,1-2.69-1l2.68-2.68,2.7,2.69A4.26,4.26,0,0,1,10.6,19.21Zm3.22-1.5L11.12,15l3-3,.52.52L14.87,15A4.18,4.18,0,0,1,13.82,17.71Z"/>
</svg>
