<svg id="Layer_3" data-name="Layer 3" xmlns="http://www.w3.org/2000/svg" viewBox="0 0 20 20">
  <defs>
    <style>
      .cls-1 {
        fill: none;
      }
    </style>
  </defs>
  <title>Icons</title>
  <path class="cls-1" d="M11.88,9.93a2.74,2.74,0,0,0,1.17,2.25V7.68A2.74,2.74,0,0,0,11.88,9.93Z"/>
  <path class="cls-1" d="M11.12,9.93a3.47,3.47,0,0,1,1.93-3.11V4.63H3.55V15a.25.25,0,0,0,.25.25h9a.25.25,0,0,0,.25-.25V13A3.49,3.49,0,0,1,11.12,9.93Z"/>
  <path class="cls-1" d="M14.62,12.68a2.75,2.75,0,1,0,0-5.5,2.82,2.82,0,0,0-.82.14v5.22A2.82,2.82,0,0,0,14.62,12.68Z"/>
  <path d="M14.62,6.49a3.24,3.24,0,0,0-.82.11V4.69h.5V3.94H2.3v.75h.5V15a1,1,0,0,0,1,1h9a1,1,0,0,0,1-1V13.38a3.24,3.24,0,0,0,.82.11,3.5,3.5,0,1,0,0-7ZM13.05,13.1V15a.25.25,0,0,1-.25.25h-9A.25.25,0,0,1,3.55,15V4.69h9.5V13.1Zm1.57-.36a2.82,2.82,0,0,1-.82-.14V7.38a2.82,2.82,0,0,1,.82-.14,2.75,2.75,0,1,1,0,5.5Z"/>
</svg>
