<svg id="Layer_3" data-name="Layer 3" xmlns="http://www.w3.org/2000/svg" viewBox="0 0 20 20">
  <title>Icons</title>
  <path d="M1,0,9.24,9.18a1.08,1.08,0,0,0,.38.26v9.8H7V20h6v-.75H10.37V9.43a1.07,1.07,0,0,0,.35-.25L15.37,4l.93-1L19,0Zm9.17,8.67a.27.27,0,0,1-.38,0L4.87,3.19a4.59,4.59,0,0,1,2.06-.43A4.79,4.79,0,0,1,10,3.83,5.11,5.11,0,0,0,13.6,5C13.68,5,10.17,8.68,10.17,8.68Zm3.38-4.4a4.84,4.84,0,0,1-3.1-1.07A5.48,5.48,0,0,0,6.93,2a5.24,5.24,0,0,0-2.58.61L2.68.76H17.31L14.09,4.23S14.11,4.28,13.55,4.28Z"/>
</svg>
