<svg id="Layer_3" data-name="Layer 3" xmlns="http://www.w3.org/2000/svg" viewBox="0 0 20 20">
  <defs>
    <style>
      .cls-1 {
        fill: none;
        stroke: #000;
        stroke-miterlimit: 10;
        stroke-width: 0.75px;
      }
    </style>
  </defs>
  <title>Icons</title>
  <line class="cls-1" x1="3.46" y1="0.4" x2="16.56" y2="0.4"/>
  <path d="M2.94,0V4a5,5,0,0,0,5,5H9.59V19.25H5.94V20h8v-.75h-3.6V9h1.6a5,5,0,0,0,5-5V0ZM16.19,4a4.25,4.25,0,0,1-4.25,4.25h-4A4.26,4.26,0,0,1,3.69,4V3.63A5,5,0,0,1,6.5,2.74,4.82,4.82,0,0,1,9.61,3.81,5.53,5.53,0,0,0,13.13,5a5.2,5.2,0,0,0,3.06-1Zm0-.93-.07,0a4.86,4.86,0,0,1-3,1.12A4.79,4.79,0,0,1,10,3.19,5.49,5.49,0,0,0,6.5,2a5.47,5.47,0,0,0-2.81.77v-2h12.5Z"/>
</svg>
