<svg id="Layer_3" data-name="Layer 3" xmlns="http://www.w3.org/2000/svg" viewBox="0 0 20 20">
  <title>Icons</title>
  <path d="M10.37,13C11.85,12.43,13,8.86,13,4.53c0-.14,0-.27,0-.4s0-.5,0-.75A20.94,20.94,0,0,0,12.69.76L12.54,0H7.46L7.31.76c0,.17,0,.35-.06.52s-.07.49-.1.75A22,22,0,0,0,7,4.53C7,8.86,8.14,12.43,9.62,13v6.28H7V20h6v-.75H10.37ZM8.07.76h3.86a29.2,29.2,0,0,1,.29,3.07A4.85,4.85,0,0,1,9.41,2.78,7.77,7.77,0,0,0,8,1.94,8.91,8.91,0,0,1,8.07.76ZM7.75,4.53a15.26,15.26,0,0,1,.11-1.8A9.61,9.61,0,0,1,9,3.4a5.54,5.54,0,0,0,3.25,1.18c0,.14,0-.19,0,0,0,5-1.49,7.75-2.25,7.75S7.76,9.55,7.75,4.53Z"/>
</svg>
