<svg xmlns="http://www.w3.org/2000/svg" xmlns:xlink="http://www.w3.org/1999/xlink" viewBox="0 0 147 3">
  <defs>
    <style>
      .cls-1, .cls-3 {
        fill: none;
      }

      .cls-2 {
        clip-path: url(#clip-path);
      }

      .cls-3 {
        stroke: #fffcd5;
        stroke-miterlimit: 10;
        stroke-width: 0.75px;
      }
    </style>
    <clipPath id="clip-path">
      <rect class="cls-1" x="-0.3" y="0.01" width="339" height="3"/>
    </clipPath>
  </defs>
  <title>Icons</title>
  <g id="Layer_6" data-name="Layer 6">
    <g class="cls-2">
      <path class="cls-3" d="M-.3.38c3.68,0,3.68,2.25,7.37,2.25S10.75.38,14.43.38s3.69,2.25,7.37,2.25S25.49.38,29.17.38s3.68,2.25,7.37,2.25S40.22.38,43.91.38s3.68,2.25,7.36,2.25S55,.38,58.64.38,62.33,2.63,66,2.63,69.69.38,73.38.38s3.68,2.25,7.37,2.25S84.43.38,88.12.38s3.68,2.25,7.36,2.25S99.17.38,102.85.38s3.69,2.25,7.37,2.25S113.9.38,117.59.38s3.68,2.25,7.37,2.25S128.64.38,132.32.38s3.68,2.25,7.36,2.25S143.37.38,147.05.38s3.69,2.25,7.37,2.25S158.1.38,161.78.38s3.69,2.25,7.37,2.25S172.84.38,176.52.38s3.68,2.25,7.37,2.25S187.57.38,191.26.38s3.68,2.25,7.36,2.25S202.31.38,206,.38s3.69,2.25,7.37,2.25S217.05.38,220.73.38s3.69,2.25,7.37,2.25S231.79.38,235.47.38s3.69,2.25,7.38,2.25S246.53.38,250.22.38s3.68,2.25,7.37,2.25S261.28.38,265,.38s3.68,2.25,7.37,2.25S276,.38,279.7.38s3.68,2.25,7.37,2.25S290.76.38,294.44.38s3.69,2.25,7.37,2.25S305.5.38,309.19.38s3.68,2.25,7.37,2.25S320.25.38,323.94.38s3.69,2.25,7.38,2.25S335,.38,338.7.38"/>
    </g>
  </g>
</svg>
