<svg id="Layer_3" data-name="Layer 3" xmlns="http://www.w3.org/2000/svg" viewBox="0 0 20 20">
  <title>Icons</title>
  <path d="M14.93,0H5.05A6,6,0,0,0,9.61,9.38v9.87H7V20h6v-.75H10.36V9.38a6,6,0,0,0,5.56-5.14A5.71,5.71,0,0,0,16,3.4h0A6,6,0,0,0,14.93,0ZM10.32,8.63l-.33,0-.33,0A5.25,5.25,0,0,1,4.74,3.4c0-.13,0,.11,0,0a4.41,4.41,0,0,1,2.52-.69,4.84,4.84,0,0,1,3.11,1.07A5.48,5.48,0,0,0,13.86,5a6.13,6.13,0,0,0,1.2-.11A4.84,4.84,0,0,1,10.32,8.63Zm3.54-4.42a4.79,4.79,0,0,1-3.1-1.07,5.49,5.49,0,0,0-3.53-1.2,5.15,5.15,0,0,0-2.38.52A7.92,7.92,0,0,1,5.46.75h9.06a5.22,5.22,0,0,1,.72,2.65,2.15,2.15,0,0,1-.09.66A5.25,5.25,0,0,1,13.86,4.21Z"/>
</svg>
