<svg id="Layer_3" data-name="Layer 3" xmlns="http://www.w3.org/2000/svg" viewBox="0 0 20 20">
  <title>Icons</title>
  <path d="M10.41,15.66a3.61,3.61,0,0,0,3.2-3.94l-.34-3.26a19.85,19.85,0,0,1,0-3.93c0-.25.07-.5.11-.75s0-.28,0-.42L14,0H6l.26,1.55.13.73.18,1.08a19,19,0,0,1,.17,5.1l-.33,3.26a3.59,3.59,0,0,0,3.24,3.94v3.57H6V20H9.66v0h.75v0H14v-.75h-3.6ZM13.12.75,12.7,3.23c0,.17-.1,1-.12,1.17a4.64,4.64,0,0,1-2.4-1A5.28,5.28,0,0,0,7.11,2.22L6.9.75ZM10,15A2.87,2.87,0,0,1,7.16,11.8L7.5,8.54a19.69,19.69,0,0,0-.18-5.31L7.26,3a4.47,4.47,0,0,1,2.5,1,5.39,5.39,0,0,0,2.71,1.14,13.67,13.67,0,0,0,.06,3.38l.33,3.26A2.85,2.85,0,0,1,10,15Z"/>
</svg>
