<svg id="Layer_3" data-name="Layer 3" xmlns="http://www.w3.org/2000/svg" viewBox="0 0 20 20">
  <defs>
    <style>
      .cls-1 {
        fill: none;
      }
    </style>
  </defs>
  <title>Icons</title>
  <path class="cls-1" d="M6.8,2.75l0,.82a8.34,8.34,0,0,1,.91-.06,5.51,5.51,0,0,1,3.53,1.2A5.7,5.7,0,0,0,13,5.6l.19-2.85Z"/>
  <path class="cls-1" d="M7.76,4.26a5.61,5.61,0,0,0-.86.06L7.71,17a.24.24,0,0,0,.23.23H12a.24.24,0,0,0,.23-.23L13,6.36a6,6,0,0,1-2.1-1A4.84,4.84,0,0,0,7.76,4.26Z"/>
  <path d="M6,2H6l.11,1.74,0,.76L7,17.06a1,1,0,0,0,1,.94H12a1,1,0,0,0,1-.93L13.7,6.49l.05-.75L14,2Zm6.23,15a.24.24,0,0,1-.23.23H7.94A.24.24,0,0,1,7.71,17L7,5.09A5.61,5.61,0,0,1,7.83,5a4.79,4.79,0,0,1,3.1,1.06,5.25,5.25,0,0,0,2,1ZM11.35,5.47A5.53,5.53,0,0,0,7.83,4.28a6.32,6.32,0,0,0-.91.06L6.8,2.75h6.4l-.26,3.57A4.83,4.83,0,0,1,11.35,5.47Z"/>
</svg>
