<svg id="Layer_3" data-name="Layer 3" xmlns="http://www.w3.org/2000/svg" viewBox="0 0 20 20">
  <title>Icons</title>
  <path d="M4.82,2h0l.42,6.64L5.78,17a.29.29,0,0,0,0,.1,1,1,0,0,0,1,.83h6.06a1,1,0,0,0,1-.93l0-.52.54-8L14.82,2ZM7.06,17.22h-.3A.24.24,0,0,1,6.53,17L6,8.83a.63.63,0,0,1,.42-.17.63.63,0,0,1,.63.63Zm3.4,0H9.21V9.29a.63.63,0,1,1,1.25,0Zm1.38-7.93v7.93h-.63V9.29a1.38,1.38,0,1,0-2.75,0v7.93H7.81V9.29A1.38,1.38,0,0,0,6.43,7.91,1.4,1.4,0,0,0,6,8L5.62,2.72H14L13.66,8a1.33,1.33,0,0,0-.45-.08A1.37,1.37,0,0,0,11.84,9.29ZM13.05,17a.24.24,0,0,1-.23.23h-.23V9.29a.63.63,0,0,1,.62-.63.64.64,0,0,1,.4.15Z"/>
</svg>
